<?xml version="1.0" standalone="no"?>
<!DOCTYPE svg PUBLIC "-//W3C//DTD SVG 20010904//EN"
 "http://www.w3.org/TR/2001/REC-SVG-20010904/DTD/svg10.dtd">
<svg version="1.0" xmlns="http://www.w3.org/2000/svg"
 width="512.000000pt" height="512.000000pt" viewBox="0 0 512.000000 512.000000"
 preserveAspectRatio="xMidYMid meet">

<g transform="translate(0.000000,512.000000) scale(0.100000,-0.100000)"
fill="#000000" stroke="none">
<path d="M1870 4573 c-76 -39 -74 -156 4 -188 30 -13 156 -15 841 -15 l805 0
0 -1810 0 -1810 -1036 0 -1036 0 -29 29 -29 29 0 244 c0 282 -5 303 -75 327
-35 12 -45 11 -78 -2 -65 -28 -69 -51 -65 -341 3 -247 3 -252 30 -308 32 -70
96 -133 168 -167 l55 -26 1455 0 1455 0 57 27 c70 32 133 96 167 168 l26 55 0
1775 0 1775 -26 56 c-34 72 -96 134 -168 168 l-56 26 -1215 3 c-1143 2 -1217
1 -1250 -15z m2471 -232 l29 -29 0 -1752 0 -1752 -29 -29 -29 -29 -291 0 -291
0 0 1810 0 1810 291 0 291 0 29 -29z"/>
<path d="M1069 3947 c-81 -23 -131 -62 -311 -244 -207 -209 -233 -249 -232
-368 1 -130 -16 -109 597 -723 304 -304 564 -560 579 -568 22 -11 90 -14 358
-14 l332 0 29 29 29 29 0 337 c0 259 -3 343 -13 368 -9 20 -226 240 -560 567
-422 414 -558 541 -599 562 -65 33 -146 43 -209 25z m643 -734 l528 -528 0
-222 0 -223 -223 0 -222 0 -520 520 -520 520 0 60 0 61 171 169 c169 169 171
170 214 170 l45 0 527 -527z"/>
</g>
</svg>
